<svg id="Layer_1" data-name="Layer 1" xmlns="http://www.w3.org/2000/svg" viewBox="0 0 207.23 116.82"><title>dropdown</title><path d="M134.21,161.5a38.19,38.19,0,0,1,3.44-4.82q38.47-38.57,77-77c7.58-7.54,18.92-5,21.87,4.88,1.59,5.34-.29,9.77-4.09,13.57q-10.24,10.25-20.5,20.49-34.6,34.67-69.2,69.33c-5.48,5.49-13.12,5.43-18.62-.08l-87.59-87.7c-1.06-1.06-2.17-2.07-3.14-3.21-4.94-5.75-4.65-13.51.62-18.38,5.11-4.71,12.6-4.52,18,.81q27.66,27.47,55.17,55.1C115.87,143.14,124.56,151.85,134.21,161.5Z" transform="translate(-29.9 -75.17)"/></svg>