<svg id="Layer_1" data-name="Layer 1" xmlns="http://www.w3.org/2000/svg" viewBox="0 0 264 264"><defs><style>.cls-1{fill:none;}</style></defs><title>search</title><path class="cls-1" d="M212.61,223.91H40.09V40.09H223.91V212.61c-.1-.52-.19-1-.32-1.55a10.88,10.88,0,0,0-3.12-5.14l-50.66-50.65-.9-.92a71.21,71.21,0,0,0,13.62-51.89A70,70,0,0,0,174,76.59a71.39,71.39,0,1,0-122.64,73c9.31,14.72,22.32,25,39,30,23.11,7,44.55,3.07,64.37-10.87a7.15,7.15,0,0,0,.6.76Q176.73,191,198.2,212.48l8.3,8.31a10.13,10.13,0,0,0,5.2,2.82A7.45,7.45,0,0,1,212.61,223.91Z"/><path d="M212.61,223.91a7.45,7.45,0,0,0-.91-.3,10.13,10.13,0,0,1-5.2-2.82l-8.3-8.31Q176.74,191,155.28,169.55a7.15,7.15,0,0,1-.6-.76c-19.82,13.94-41.26,17.91-64.37,10.87-16.68-5.08-29.69-15.32-39-30A71.39,71.39,0,1,1,174,76.59a70,70,0,0,1,8.58,25.87,71.21,71.21,0,0,1-13.62,51.89l.9.92,50.66,50.65a10.88,10.88,0,0,1,3.12,5.14c.13.51.22,1,.32,1.55v2c-.11.55-.18,1.11-.33,1.64a10.07,10.07,0,0,1-7.55,7.32c-.37.1-.72.24-1.08.36ZM162.75,111.65a51,51,0,1,0-50.86,51A51,51,0,0,0,162.75,111.65Z"/><path class="cls-1" d="M215,223.91c.36-.12.71-.26,1.08-.36a10.07,10.07,0,0,0,7.55-7.32c.15-.53.22-1.09.33-1.64v9.32Z"/><path class="cls-1" d="M162.75,111.65a51,51,0,1,1-51.15-51A51,51,0,0,1,162.75,111.65Z"/></svg>